<svg xmlns="http://www.w3.org/2000/svg" xmlns:xlink="http://www.w3.org/1999/xlink" width="1920" zoomAndPan="magnify" viewBox="0 0 1440 884.249978" height="1179" preserveAspectRatio="xMidYMid meet" version="1.0"><defs><filter x="0%" y="0%" width="100%" height="100%" id="9d137a3000"><feColorMatrix values="0 0 0 0 1 0 0 0 0 1 0 0 0 0 1 0 0 0 1 0" color-interpolation-filters="sRGB"/></filter><clipPath id="ae5837b0cf"><path d="M 635 52.550781 L 1251 52.550781 L 1251 792 L 635 792 Z M 635 52.550781 " clip-rule="nonzero"/></clipPath><clipPath id="b6fcc83e05"><path d="M 472.609375 52.550781 L 1091 52.550781 L 1091 795.171875 L 472.609375 795.171875 Z M 472.609375 52.550781 " clip-rule="nonzero"/></clipPath><mask id="010e3104ce"><g filter="url(#9d137a3000)"><rect x="-144" width="1728" fill="#000000" y="-88.424998" height="1061.099973" fill-opacity="0.4"/></g></mask><clipPath id="1b7a9b641c"><path d="M 0.609375 0.550781 L 616 0.550781 L 616 740 L 0.609375 740 Z M 0.609375 0.550781 " clip-rule="nonzero"/></clipPath><clipPath id="82b8e46e73"><rect x="0" width="619" y="0" height="744"/></clipPath></defs><g clip-path="url(#ae5837b0cf)"><path fill="#00abe4" d="M 1180.414062 115.902344 C 1208.726562 175.773438 1182.269531 279.738281 1191.089844 352.140625 C 1199.441406 424.078125 1243.535156 464.921875 1249.570312 507.621094 C 1255.136719 550.316406 1223.113281 594.875 1190.625 648.246094 C 1157.671875 701.621094 1124.71875 762.886719 1075.523438 783.308594 C 1026.324219 803.265625 961.8125 782.84375 895.441406 764.742188 C 829.070312 746.175781 761.308594 730.398438 727.894531 687.234375 C 694.941406 644.070312 696.332031 573.523438 677.765625 500.660156 C 659.203125 427.792969 620.679688 352.605469 640.636719 302.015625 C 660.128906 251.425781 738.101562 224.96875 805.402344 182.734375 C 872.234375 140.5 928.859375 82.484375 998.476562 61.597656 C 1068.5625 40.25 1152.101562 56.03125 1180.414062 115.902344 Z M 1180.414062 115.902344 " fill-opacity="1" fill-rule="nonzero"/></g><g clip-path="url(#b6fcc83e05)"><g mask="url(#010e3104ce)"><g transform="matrix(1, 0, 0, 1, 472, 52)"><g clip-path="url(#82b8e46e73)"><g clip-path="url(#1b7a9b641c)"><path fill="#00abe4" d="M 545.972656 63.902344 C 574.28125 123.773438 547.828125 227.738281 556.644531 300.140625 C 565 372.078125 609.09375 412.921875 615.125 455.621094 C 620.695312 498.316406 588.671875 542.875 556.183594 596.246094 C 523.230469 649.621094 490.277344 710.886719 441.078125 731.308594 C 391.878906 751.265625 327.367188 730.84375 261 712.742188 C 194.628906 694.175781 126.867188 678.398438 93.449219 635.234375 C 60.496094 592.070312 61.890625 521.523438 43.324219 448.660156 C 24.761719 375.792969 -13.761719 300.605469 6.195312 250.015625 C 25.6875 199.425781 103.660156 172.96875 170.957031 130.734375 C 237.792969 88.5 294.414062 30.484375 364.03125 9.597656 C 434.117188 -11.75 517.660156 4.03125 545.972656 63.902344 Z M 545.972656 63.902344 " fill-opacity="1" fill-rule="nonzero"/></g></g></g></g></g></svg>