<svg xmlns="http://www.w3.org/2000/svg" xmlns:xlink="http://www.w3.org/1999/xlink" width="1920" zoomAndPan="magnify" viewBox="0 0 1440 884.249978" height="1179" preserveAspectRatio="xMidYMid meet" version="1.0"><defs><filter x="0%" y="0%" width="100%" height="100%" id="c47774c0c5"><feColorMatrix values="0 0 0 0 1 0 0 0 0 1 0 0 0 0 1 0 0 0 1 0" color-interpolation-filters="sRGB"/></filter><clipPath id="3d171c992b"><path d="M 360 0 L 1387 0 L 1387 883.5 L 360 883.5 Z M 360 0 " clip-rule="nonzero"/></clipPath><clipPath id="91299ef028"><path d="M 88.960938 0 L 1120 0 L 1120 883.5 L 88.960938 883.5 Z M 88.960938 0 " clip-rule="nonzero"/></clipPath><mask id="e1765d75a9"><g filter="url(#c47774c0c5)"><rect x="-144" width="1728" fill="#000000" y="-88.424998" height="1061.099973" fill-opacity="0.4"/></g></mask><clipPath id="e542dc9f49"><path d="M 0.960938 0 L 1028 0 L 1028 883.5 L 0.960938 883.5 Z M 0.960938 0 " clip-rule="nonzero"/></clipPath><clipPath id="5c34b4f845"><rect x="0" width="1032" y="0" height="884"/></clipPath></defs><g clip-path="url(#3d171c992b)"><path fill="#00abe4" d="M 1270.253906 -193.84375 C 1317.503906 -93.921875 1273.351562 79.589844 1288.070312 200.425781 C 1302.011719 320.488281 1375.601562 388.652344 1385.671875 459.914062 C 1394.964844 531.175781 1341.519531 605.535156 1287.296875 694.613281 C 1232.300781 783.695312 1177.304688 885.941406 1095.195312 920.023438 C 1013.089844 953.332031 905.417969 919.246094 794.648438 889.039062 C 683.882812 858.054688 570.789062 831.71875 515.019531 759.679688 C 460.023438 687.644531 462.347656 569.90625 431.363281 448.296875 C 400.378906 326.683594 336.085938 201.199219 369.394531 116.769531 C 401.929688 32.339844 532.058594 -11.8125 644.375 -82.300781 C 755.917969 -152.789062 850.417969 -249.613281 966.613281 -284.472656 C 1083.578125 -320.101562 1223.003906 -293.765625 1270.253906 -193.84375 Z M 1270.253906 -193.84375 " fill-opacity="1" fill-rule="nonzero"/></g><g clip-path="url(#91299ef028)"><g mask="url(#e1765d75a9)"><g transform="matrix(1, 0, 0, 1, 88, 0)"><g clip-path="url(#5c34b4f845)"><g clip-path="url(#e542dc9f49)"><path fill="#00abe4" d="M 911.144531 -193.84375 C 958.394531 -93.921875 914.246094 79.589844 928.960938 200.425781 C 942.90625 320.488281 1016.492188 388.652344 1026.5625 459.914062 C 1035.855469 531.175781 982.410156 605.535156 928.1875 694.613281 C 873.191406 783.695312 818.195312 885.941406 736.082031 920.023438 C 653.976562 953.332031 546.308594 919.246094 435.539062 889.039062 C 324.773438 858.054688 211.679688 831.71875 155.910156 759.679688 C 100.914062 687.644531 103.238281 569.90625 72.253906 448.296875 C 41.269531 326.683594 -23.019531 201.199219 10.285156 116.769531 C 42.820312 32.339844 172.953125 -11.8125 285.269531 -82.300781 C 396.808594 -152.789062 491.3125 -249.613281 607.5 -284.472656 C 724.464844 -320.101562 863.894531 -293.765625 911.144531 -193.84375 Z M 911.144531 -193.84375 " fill-opacity="1" fill-rule="nonzero"/></g></g></g></g></g></svg>