<svg xmlns="http://www.w3.org/2000/svg" xmlns:xlink="http://www.w3.org/1999/xlink" width="1920" zoomAndPan="magnify" viewBox="0 0 1440 884.249978" height="1179" preserveAspectRatio="xMidYMid meet" version="1.0"><defs><filter x="0%" y="0%" width="100%" height="100%" id="50612759d3"><feColorMatrix values="0 0 0 0 1 0 0 0 0 1 0 0 0 0 1 0 0 0 1 0" color-interpolation-filters="sRGB"/></filter><clipPath id="d37b2bb30c"><path d="M 606 11.667969 L 1329 11.667969 L 1329 880 L 606 880 Z M 606 11.667969 " clip-rule="nonzero"/></clipPath><clipPath id="267c2abe5b"><path d="M 415.765625 11.667969 L 1141 11.667969 L 1141 883.179688 L 415.765625 883.179688 Z M 415.765625 11.667969 " clip-rule="nonzero"/></clipPath><mask id="3383aa824f"><g filter="url(#50612759d3)"><rect x="-144" width="1728" fill="#000000" y="-88.424998" height="1061.099973" fill-opacity="0.4"/></g></mask><clipPath id="e21b9c6d2a"><path d="M 0.765625 0.667969 L 723 0.667969 L 723 869 L 0.765625 869 Z M 0.765625 0.667969 " clip-rule="nonzero"/></clipPath><clipPath id="1cdefb6933"><rect x="0" width="726" y="0" height="873"/></clipPath></defs><g clip-path="url(#d37b2bb30c)"><path fill="#00abe4" d="M 1246.746094 86.042969 C 1279.984375 156.335938 1248.925781 278.390625 1259.277344 363.394531 C 1269.085938 447.851562 1320.851562 495.804688 1327.933594 545.933594 C 1334.472656 596.058594 1296.875 648.371094 1258.734375 711.03125 C 1220.046875 773.695312 1181.359375 845.621094 1123.601562 869.597656 C 1065.84375 893.027344 990.101562 869.050781 912.179688 847.800781 C 834.261719 826.003906 754.707031 807.476562 715.472656 756.804688 C 676.785156 706.128906 678.421875 623.304688 656.625 537.757812 C 634.828125 452.210938 589.605469 363.9375 613.035156 304.546875 C 635.917969 245.152344 727.460938 214.09375 806.472656 164.507812 C 884.933594 114.921875 951.410156 46.8125 1033.148438 22.292969 C 1115.425781 -2.773438 1213.507812 15.753906 1246.746094 86.042969 Z M 1246.746094 86.042969 " fill-opacity="1" fill-rule="nonzero"/></g><g clip-path="url(#267c2abe5b)"><g mask="url(#3383aa824f)"><g transform="matrix(1, 0, 0, 1, 415, 11)"><g clip-path="url(#1cdefb6933)"><g clip-path="url(#e21b9c6d2a)"><path fill="#00abe4" d="M 641.035156 75.042969 C 674.273438 145.335938 643.214844 267.390625 653.566406 352.394531 C 663.375 436.851562 715.140625 484.804688 722.222656 534.933594 C 728.761719 585.058594 691.164062 637.371094 653.023438 700.03125 C 614.335938 762.695312 575.648438 834.621094 517.886719 858.597656 C 460.128906 882.027344 384.386719 858.050781 306.46875 836.800781 C 228.546875 815.003906 148.992188 796.476562 109.761719 745.804688 C 71.074219 695.128906 72.710938 612.304688 50.914062 526.757812 C 29.117188 441.210938 -16.109375 352.9375 7.320312 293.546875 C 30.207031 234.152344 121.75 203.09375 200.757812 153.507812 C 279.222656 103.921875 345.699219 35.8125 427.433594 11.292969 C 509.710938 -13.773438 607.796875 4.753906 641.035156 75.042969 Z M 641.035156 75.042969 " fill-opacity="1" fill-rule="nonzero"/></g></g></g></g></g></svg>